<svg height="512" viewBox="0 0 512.167 512.167" width="512" xmlns="http://www.w3.org/2000/svg"><path d="M172.96 393.374c-2.63 0-5.21 1.06-7.07 2.93a10.062 10.062 0 00-2.93 7.07c0 2.63 1.07 5.21 2.93 7.07s4.44 2.93 7.07 2.93 5.21-1.07 7.07-2.93a10.08 10.08 0 002.93-7.07c0-2.64-1.07-5.21-2.93-7.07a10.029 10.029 0 00-7.07-2.93zM264.315 328.208c0-5.523-4.478-10-10-10h-111.67c-5.522 0-10 4.477-10 10s4.478 10 10 10h111.67c5.523 0 10-4.477 10-10zM130.997 226.208h134.967c5.522 0 10-4.477 10-10s-4.478-10-10-10H130.997c-5.522 0-10 4.477-10 10s4.478 10 10 10zM195.461 148.137c-7.262 0-13.169-4.947-13.169-11.027 0-5.523-4.478-10-10-10s-10 4.477-10 10c0 13.849 9.752 25.605 23.169 29.583v1.39c0 5.523 4.478 10 10 10s10-4.477 10-10v-1.39c13.417-3.977 23.169-15.733 23.169-29.583 0-17.108-14.88-31.027-33.169-31.027-7.262 0-13.169-4.947-13.169-11.027s5.907-11.027 13.169-11.027 13.169 4.947 13.169 11.027c0 5.523 4.478 10 10 10s10-4.477 10-10c0-13.849-9.752-25.605-23.169-29.583v-1.39c0-5.523-4.478-10-10-10s-10 4.477-10 10v1.39c-13.417 3.977-23.169 15.733-23.169 29.583 0 17.108 14.88 31.027 33.169 31.027 7.262 0 13.169 4.947 13.169 11.027s-5.907 11.027-13.169 11.027z"/><path d="M496.166 308.961l-15.601 11.205c-23.41 16.814-51.02 25.702-79.843 25.702h-34.785c-8.28 0-15.018-6.737-15.018-15.017 0-8.281 6.737-15.018 15.018-15.018h17c29.145 0 52.963-23.185 54.012-52.078l43.689-75.672h21.528c5.522 0 10-4.477 10-10s-4.478-10-10-10h-9.981l18.641-32.288a9.997 9.997 0 00-3.66-13.66l-38.105-22c-4.784-2.761-10.899-1.122-13.66 3.66l-37.116 64.288h-9.445c-5.007 0-9.961.343-14.84 1.003V10.083c0-5.523-4.478-10-10-10H10c-5.522 0-10 4.477-10 10v492c0 5.523 4.478 10 10 10h374c5.522 0 10-4.477 10-10V365.868h6.723c33.035 0 64.679-10.186 91.511-29.458l15.601-11.205c4.485-3.222 5.51-9.47 2.288-13.956-3.222-4.484-9.469-5.511-13.957-2.288zm-140.394 55.397l-.079.137-23.947 17.479 3.164-29.479 1.579-2.735c4.45 6.909 11.258 12.159 19.283 14.598zm111.95-241.902l20.785 12-91.376 158.267a33.845 33.845 0 01-14.193 3.11h-15.315zm-113.3 156.242l-.005.007-25.895 44.851c-1.646 2.85-4.325 4.787-7.547 5.456-3.22.669-6.452-.042-9.096-2.002a11.354 11.354 0 01-4.268-11.896l14.798-59.472a89.056 89.056 0 0123.581-41.601c16.302-16.235 37.795-25.369 60.717-25.905zM20 492.083v-472h354v153.664c-15.682 5.269-30.062 14.112-42.122 26.122a109.064 109.064 0 00-28.876 50.943l-2.835 11.396H89.294c-5.522 0-10 4.477-10 10s4.478 10 10 10H295.19l-6.986 28.075a31.3 31.3 0 0011.766 32.793c4.49 3.329 9.748 5.339 15.196 5.951l-4.759 44.343h-92.446c-5.522 0-10 4.477-10 10s4.478 10 10 10h101.431a9.994 9.994 0 005.896-1.923l43.904-32.044a10.02 10.02 0 002.765-3.078l2.044-3.54v119.297H20z"/></svg>